<mxfile host="app.diagrams.net" agent="Mozilla/5.0 (Windows NT 10.0; Win64; x64) AppleWebKit/537.36 (KHTML, like Gecko) Chrome/129.0.0.0 Safari/537.36" version="24.7.17">
  <diagram name="Page-1" id="_FwJqfKSit_MHCnarlF8">
    <mxGraphModel dx="794" dy="458" grid="1" gridSize="10" guides="1" tooltips="1" connect="1" arrows="1" fold="1" page="1" pageScale="1" pageWidth="850" pageHeight="1100" math="0" shadow="0">
      <root>
        <mxCell id="0" />
        <mxCell id="1" parent="0" />
        <mxCell id="IKRkE9KavZhXF0yhF9RJ-3" value="Patient Info DB" style="rounded=0;whiteSpace=wrap;html=1;" vertex="1" parent="1">
          <mxGeometry x="521.25" y="241.25" width="80" height="55" as="geometry" />
        </mxCell>
        <mxCell id="IKRkE9KavZhXF0yhF9RJ-4" value="Triage Management" style="rounded=0;whiteSpace=wrap;html=1;" vertex="1" parent="1">
          <mxGeometry x="380" y="245" width="75" height="47.5" as="geometry" />
        </mxCell>
        <mxCell id="IKRkE9KavZhXF0yhF9RJ-7" value="Sign up" style="rounded=0;whiteSpace=wrap;html=1;" vertex="1" parent="1">
          <mxGeometry x="530" y="470" width="62.5" height="40" as="geometry" />
        </mxCell>
        <mxCell id="IKRkE9KavZhXF0yhF9RJ-8" value="Triage Request" style="rounded=0;whiteSpace=wrap;html=1;" vertex="1" parent="1">
          <mxGeometry x="385" y="470" width="65" height="40" as="geometry" />
        </mxCell>
        <mxCell id="IKRkE9KavZhXF0yhF9RJ-12" value="" style="endArrow=classic;html=1;rounded=0;exitX=1;exitY=0.5;exitDx=0;exitDy=0;entryX=0;entryY=0.5;entryDx=0;entryDy=0;dashed=1;" edge="1" parent="1" source="IKRkE9KavZhXF0yhF9RJ-4" target="IKRkE9KavZhXF0yhF9RJ-3">
          <mxGeometry width="50" height="50" relative="1" as="geometry">
            <mxPoint x="450" y="271.25" as="sourcePoint" />
            <mxPoint x="500" y="221.25" as="targetPoint" />
          </mxGeometry>
        </mxCell>
        <mxCell id="IKRkE9KavZhXF0yhF9RJ-13" value="UI" style="rounded=0;whiteSpace=wrap;html=1;" vertex="1" parent="1">
          <mxGeometry x="455" y="540" width="80" height="50" as="geometry" />
        </mxCell>
        <mxCell id="IKRkE9KavZhXF0yhF9RJ-14" value="" style="endArrow=none;html=1;rounded=0;exitX=0;exitY=0.5;exitDx=0;exitDy=0;entryX=0.5;entryY=1;entryDx=0;entryDy=0;" edge="1" parent="1" source="IKRkE9KavZhXF0yhF9RJ-13" target="IKRkE9KavZhXF0yhF9RJ-8">
          <mxGeometry width="50" height="50" relative="1" as="geometry">
            <mxPoint x="330" y="540" as="sourcePoint" />
            <mxPoint x="380" y="490" as="targetPoint" />
            <Array as="points">
              <mxPoint x="418" y="565" />
            </Array>
          </mxGeometry>
        </mxCell>
        <mxCell id="IKRkE9KavZhXF0yhF9RJ-15" value="" style="endArrow=none;html=1;rounded=0;exitX=1;exitY=0.5;exitDx=0;exitDy=0;entryX=0.5;entryY=1;entryDx=0;entryDy=0;" edge="1" parent="1" source="IKRkE9KavZhXF0yhF9RJ-13" target="IKRkE9KavZhXF0yhF9RJ-7">
          <mxGeometry width="50" height="50" relative="1" as="geometry">
            <mxPoint x="330" y="540" as="sourcePoint" />
            <mxPoint x="380" y="490" as="targetPoint" />
            <Array as="points">
              <mxPoint x="561" y="565" />
            </Array>
          </mxGeometry>
        </mxCell>
        <mxCell id="IKRkE9KavZhXF0yhF9RJ-17" value="" style="endArrow=classic;html=1;rounded=0;entryX=0.5;entryY=1;entryDx=0;entryDy=0;exitX=1;exitY=0.5;exitDx=0;exitDy=0;" edge="1" parent="1" source="IKRkE9KavZhXF0yhF9RJ-8" target="IKRkE9KavZhXF0yhF9RJ-23">
          <mxGeometry width="50" height="50" relative="1" as="geometry">
            <mxPoint x="400" y="430" as="sourcePoint" />
            <mxPoint x="450" y="380" as="targetPoint" />
            <Array as="points">
              <mxPoint x="491" y="490" />
            </Array>
          </mxGeometry>
        </mxCell>
        <mxCell id="IKRkE9KavZhXF0yhF9RJ-18" value="" style="endArrow=classic;html=1;rounded=0;entryX=0.5;entryY=1;entryDx=0;entryDy=0;exitX=0.5;exitY=0;exitDx=0;exitDy=0;" edge="1" parent="1" source="IKRkE9KavZhXF0yhF9RJ-7" target="IKRkE9KavZhXF0yhF9RJ-3">
          <mxGeometry width="50" height="50" relative="1" as="geometry">
            <mxPoint x="400" y="430" as="sourcePoint" />
            <mxPoint x="450" y="380" as="targetPoint" />
          </mxGeometry>
        </mxCell>
        <mxCell id="IKRkE9KavZhXF0yhF9RJ-19" value="Email to Patient" style="text;html=1;align=center;verticalAlign=middle;whiteSpace=wrap;rounded=0;" vertex="1" parent="1">
          <mxGeometry x="380" y="320" width="60" height="30" as="geometry" />
        </mxCell>
        <mxCell id="IKRkE9KavZhXF0yhF9RJ-20" value="" style="endArrow=classic;html=1;rounded=0;exitX=0;exitY=0.5;exitDx=0;exitDy=0;entryX=1;entryY=0.5;entryDx=0;entryDy=0;" edge="1" parent="1" source="IKRkE9KavZhXF0yhF9RJ-4">
          <mxGeometry width="50" height="50" relative="1" as="geometry">
            <mxPoint x="400" y="430" as="sourcePoint" />
            <mxPoint x="220" y="268.75" as="targetPoint" />
          </mxGeometry>
        </mxCell>
        <mxCell id="IKRkE9KavZhXF0yhF9RJ-21" value="Email to Health Proffesional" style="text;html=1;align=center;verticalAlign=middle;whiteSpace=wrap;rounded=0;" vertex="1" parent="1">
          <mxGeometry x="250" y="241.25" width="110" height="30" as="geometry" />
        </mxCell>
        <mxCell id="IKRkE9KavZhXF0yhF9RJ-22" value="" style="endArrow=classic;html=1;rounded=0;exitX=0.75;exitY=1;exitDx=0;exitDy=0;" edge="1" parent="1" source="IKRkE9KavZhXF0yhF9RJ-4">
          <mxGeometry width="50" height="50" relative="1" as="geometry">
            <mxPoint x="300" y="430" as="sourcePoint" />
            <mxPoint x="435" y="360" as="targetPoint" />
          </mxGeometry>
        </mxCell>
        <mxCell id="IKRkE9KavZhXF0yhF9RJ-23" value="Triage Queue" style="rounded=0;whiteSpace=wrap;html=1;" vertex="1" parent="1">
          <mxGeometry x="448.75" y="180" width="85" height="41.25" as="geometry" />
        </mxCell>
        <mxCell id="IKRkE9KavZhXF0yhF9RJ-24" value="" style="endArrow=classic;html=1;rounded=0;exitX=0.5;exitY=0;exitDx=0;exitDy=0;entryX=0;entryY=0.5;entryDx=0;entryDy=0;dashed=1;" edge="1" parent="1" source="IKRkE9KavZhXF0yhF9RJ-4" target="IKRkE9KavZhXF0yhF9RJ-23">
          <mxGeometry width="50" height="50" relative="1" as="geometry">
            <mxPoint x="390" y="340" as="sourcePoint" />
            <mxPoint x="440" y="290" as="targetPoint" />
            <Array as="points">
              <mxPoint x="418" y="201" />
            </Array>
          </mxGeometry>
        </mxCell>
      </root>
    </mxGraphModel>
  </diagram>
</mxfile>
